<?xml version="1.0" standalone="no"?><!DOCTYPE svg PUBLIC "-//W3C//DTD SVG 1.1//EN" "http://www.w3.org/Graphics/SVG/1.1/DTD/svg11.dtd"><svg t="1650550268451" class="icon" viewBox="0 0 1024 1024" version="1.1" xmlns="http://www.w3.org/2000/svg" p-id="1018" data-darkreader-inline-fill="" xmlns:xlink="http://www.w3.org/1999/xlink" width="200" height="200"><defs><style type="text/css"></style></defs><path d="M796.444444 56.888889a170.666667 170.666667 0 0 1 170.666667 170.666667v568.888888a170.666667 170.666667 0 0 1-170.666667 170.666667H227.555556a170.666667 170.666667 0 0 1-170.666667-170.666667V227.555556a170.666667 170.666667 0 0 1 170.666667-170.666667h568.888888z m0 56.888889H227.555556a113.777778 113.777778 0 0 0-113.493334 105.244444L113.777778 227.555556v568.888888a113.777778 113.777778 0 0 0 105.244444 113.493334L227.555556 910.222222h568.888888a113.777778 113.777778 0 0 0 113.493334-105.244444L910.222222 796.444444V227.555556a113.777778 113.777778 0 0 0-105.244444-113.493334L796.444444 113.777778zM364.088889 512a136.533333 136.533333 0 1 1 0 273.066667 136.533333 136.533333 0 0 1 0-273.066667z m0 56.888889a79.644444 79.644444 0 1 0 0 159.288889 79.644444 79.644444 0 0 0 0-159.288889z m460.8 56.888889a28.444444 28.444444 0 0 1 5.12 56.433778L824.888889 682.666667h-227.555556a28.444444 28.444444 0 0 1-5.12-56.433778L597.333333 625.777778h227.555556zM519.964444 206.791111a28.444444 28.444444 0 0 1 4.551112 36.181333l-3.185778 3.982223-152.405334 162.702222-3.242666 3.128889-1.991111 1.763555a56.888889 56.888889 0 0 1-75.207111-2.332444l-4.892445-5.233778-77.937778-94.264889a28.444444 28.444444 0 0 1 40.220445-39.879111l3.584 3.640889 77.937778 94.208 152.405333-162.588444a28.444444 28.444444 0 0 1 40.220444-1.308445zM824.888889 341.333333a28.444444 28.444444 0 0 1 5.12 56.433778L824.888889 398.222222h-227.555556a28.444444 28.444444 0 0 1-5.12-56.433778L597.333333 341.333333h227.555556z" fill="#ffffff" p-id="1019" data-darkreader-inline-fill="" style="--darkreader-inline-fill:#f2f0ed;"></path></svg>