<?xml version="1.0" standalone="no"?><!DOCTYPE svg PUBLIC "-//W3C//DTD SVG 1.1//EN" "http://www.w3.org/Graphics/SVG/1.1/DTD/svg11.dtd"><svg t="1652343371252" class="icon" viewBox="0 0 1024 1024" version="1.1" xmlns="http://www.w3.org/2000/svg" p-id="2752" data-darkreader-inline-fill="" xmlns:xlink="http://www.w3.org/1999/xlink" width="128" height="128"><defs><style type="text/css"></style></defs><path d="M975.235687 536.378544h48.764313v48.764313h-48.764313zM975.235687 487.617843h48.764313v48.760701h-48.764313zM926.474986 585.142857h48.760701v48.760701h-48.760701z" p-id="2753"></path><path d="M926.474986 536.378544h48.760701v48.764313h-48.760701zM926.474986 487.617843h48.760701v48.760701h-48.760701z" fill="#FE892D" p-id="2754" data-darkreader-inline-fill="" style="--darkreader-inline-fill:#e48f4d;"></path><path d="M926.474986 438.857143h48.760701v48.7607h-48.760701zM926.474986 390.096442h48.760701v48.760701h-48.760701zM926.474986 341.332129h48.760701v48.764313h-48.760701zM926.474986 292.571429h48.760701v48.7607h-48.760701zM926.474986 243.810728h48.760701V292.571429h-48.760701zM926.474986 195.046415h48.760701v48.764313h-48.760701zM926.474986 146.285714h48.760701v48.760701h-48.760701zM877.714286 780.189272h48.7607v48.760701H877.714286zM877.714286 731.428571h48.7607v48.760701H877.714286zM877.714286 682.664258h48.7607v48.764313H877.714286zM877.714286 633.903558h48.7607v48.7607H877.714286zM877.714286 585.142857h48.7607v48.760701H877.714286z" p-id="2755"></path><path d="M877.714286 536.378544h48.7607v48.764313H877.714286z" fill="#FE892D" p-id="2756" data-darkreader-inline-fill="" style="--darkreader-inline-fill:#e48f4d;"></path><path d="M877.714286 487.617843h48.7607v48.760701H877.714286z" fill="#DD0030" p-id="2757" data-darkreader-inline-fill="" style="--darkreader-inline-fill:#ac445a;"></path><path d="M877.714286 438.857143h48.7607v48.7607H877.714286zM877.714286 390.096442h48.7607v48.760701H877.714286zM877.714286 341.332129h48.7607v48.764313H877.714286zM877.714286 292.571429h48.7607v48.7607H877.714286z" fill="#FE892D" p-id="2758" data-darkreader-inline-fill="" style="--darkreader-inline-fill:#e48f4d;"></path><path d="M877.714286 243.810728h48.7607V292.571429H877.714286z" fill="#FFFFFF" p-id="2759" data-darkreader-inline-fill="" style="--darkreader-inline-fill:#f2f0ed;"></path><path d="M877.714286 195.046415h48.7607v48.764313H877.714286zM877.714286 146.285714h48.7607v48.760701H877.714286z" fill="#FE892D" p-id="2760" data-darkreader-inline-fill="" style="--darkreader-inline-fill:#e48f4d;"></path><path d="M877.714286 97.525014h48.7607v48.7607H877.714286zM828.949973 828.949973h48.764313v48.764313h-48.764313zM828.949973 780.189272h48.764313v48.760701h-48.764313z" p-id="2761"></path><path d="M828.949973 731.428571h48.764313v48.760701h-48.764313zM828.949973 682.664258h48.764313v48.764313h-48.764313zM828.949973 633.903558h48.764313v48.7607h-48.764313zM828.949973 585.142857h48.764313v48.760701h-48.764313z" fill="#7A3B0F" p-id="2762" data-darkreader-inline-fill="" style="--darkreader-inline-fill:#6c503e;"></path><path d="M828.949973 536.378544h48.764313v48.764313h-48.764313zM828.949973 487.617843h48.764313v48.760701h-48.764313zM828.949973 438.857143h48.764313v48.7607h-48.764313z" fill="#FE892D" p-id="2763" data-darkreader-inline-fill="" style="--darkreader-inline-fill:#e48f4d;"></path><path d="M828.949973 390.096442h48.764313v48.760701h-48.764313z" fill="#FFFFFF" p-id="2764" data-darkreader-inline-fill="" style="--darkreader-inline-fill:#f2f0ed;"></path><path d="M828.949973 341.332129h48.764313v48.764313h-48.764313zM828.949973 292.571429h48.764313v48.7607h-48.764313zM828.949973 243.810728h48.764313V292.571429h-48.764313zM828.949973 195.046415h48.764313v48.764313h-48.764313z" fill="#7A3B0F" p-id="2765" data-darkreader-inline-fill="" style="--darkreader-inline-fill:#6c503e;"></path><path d="M828.949973 146.285714h48.764313v48.760701h-48.764313z" fill="#FE892D" p-id="2766" data-darkreader-inline-fill="" style="--darkreader-inline-fill:#e48f4d;"></path><path d="M828.949973 97.525014h48.764313v48.7607h-48.764313zM780.189272 877.714286h48.760701v48.7607h-48.760701z" p-id="2767"></path><path d="M780.189272 828.949973h48.760701v48.764313h-48.760701zM780.189272 780.189272h48.760701v48.760701h-48.760701zM780.189272 731.428571h48.760701v48.760701h-48.760701z" fill="#7A3B0F" p-id="2768" data-darkreader-inline-fill="" style="--darkreader-inline-fill:#6c503e;"></path><path d="M780.189272 682.664258h48.760701v48.764313h-48.760701z" fill="#311809" p-id="2769" data-darkreader-inline-fill="" style="--darkreader-inline-fill:#323537;"></path><path d="M780.189272 633.903558h48.760701v48.7607h-48.760701z" fill="#FFFFFF" p-id="2770" data-darkreader-inline-fill="" style="--darkreader-inline-fill:#f2f0ed;"></path><path d="M780.189272 585.142857h48.760701v48.760701h-48.760701z" fill="#311809" p-id="2771" data-darkreader-inline-fill="" style="--darkreader-inline-fill:#323537;"></path><path d="M780.189272 536.378544h48.760701v48.764313h-48.760701z" fill="#FC9956" p-id="2772" data-darkreader-inline-fill="" style="--darkreader-inline-fill:#f39a5e;"></path><path d="M780.189272 487.617843h48.760701v48.760701h-48.760701z" fill="#FE892D" p-id="2773" data-darkreader-inline-fill="" style="--darkreader-inline-fill:#e48f4d;"></path><path d="M780.189272 438.857143h48.760701v48.7607h-48.760701zM780.189272 390.096442h48.760701v48.760701h-48.760701z" fill="#7A3B0F" p-id="2774" data-darkreader-inline-fill="" style="--darkreader-inline-fill:#6c503e;"></path><path d="M780.189272 341.332129h48.760701v48.764313h-48.760701z" fill="#FE892D" p-id="2775" data-darkreader-inline-fill="" style="--darkreader-inline-fill:#e48f4d;"></path><path d="M780.189272 292.571429h48.760701v48.7607h-48.760701z" fill="#FFFFFF" p-id="2776" data-darkreader-inline-fill="" style="--darkreader-inline-fill:#f2f0ed;"></path><path d="M780.189272 243.810728h48.760701V292.571429h-48.760701zM780.189272 195.046415h48.760701v48.764313h-48.760701z" fill="#7A3B0F" p-id="2777" data-darkreader-inline-fill="" style="--darkreader-inline-fill:#6c503e;"></path><path d="M780.189272 146.285714h48.760701v48.760701h-48.760701z" fill="#FE892D" p-id="2778" data-darkreader-inline-fill="" style="--darkreader-inline-fill:#e48f4d;"></path><path d="M780.189272 97.525014h48.760701v48.7607h-48.760701zM731.428571 877.714286h48.760701v48.7607h-48.760701z" p-id="2779"></path><path d="M731.428571 828.949973h48.760701v48.764313h-48.760701zM731.428571 780.189272h48.760701v48.760701h-48.760701z" fill="#7A3B0F" p-id="2780" data-darkreader-inline-fill="" style="--darkreader-inline-fill:#6c503e;"></path><path d="M731.428571 731.428571h48.760701v48.760701h-48.760701z" fill="#311809" p-id="2781" data-darkreader-inline-fill="" style="--darkreader-inline-fill:#323537;"></path><path d="M731.428571 682.664258h48.760701v48.764313h-48.760701z" fill="#7A3B0F" p-id="2782" data-darkreader-inline-fill="" style="--darkreader-inline-fill:#6c503e;"></path><path d="M731.428571 633.903558h48.760701v48.7607h-48.760701zM731.428571 585.142857h48.760701v48.760701h-48.760701z" fill="#311809" p-id="2783" data-darkreader-inline-fill="" style="--darkreader-inline-fill:#323537;"></path><path d="M731.428571 536.378544h48.760701v48.764313h-48.760701z" fill="#FC9956" p-id="2784" data-darkreader-inline-fill="" style="--darkreader-inline-fill:#f39a5e;"></path><path d="M731.428571 487.617843h48.760701v48.760701h-48.760701zM731.428571 438.857143h48.760701v48.7607h-48.760701zM731.428571 390.096442h48.760701v48.760701h-48.760701zM731.428571 341.332129h48.760701v48.764313h-48.760701z" fill="#FE892D" p-id="2785" data-darkreader-inline-fill="" style="--darkreader-inline-fill:#e48f4d;"></path><path d="M731.428571 292.571429h48.760701v48.7607h-48.760701z" fill="#FFFFFF" p-id="2786" data-darkreader-inline-fill="" style="--darkreader-inline-fill:#f2f0ed;"></path><path d="M731.428571 243.810728h48.760701V292.571429h-48.760701zM731.428571 195.046415h48.760701v48.764313h-48.760701z" fill="#FE892D" p-id="2787" data-darkreader-inline-fill="" style="--darkreader-inline-fill:#e48f4d;"></path><path d="M731.428571 146.285714h48.760701v48.760701h-48.760701zM682.664258 828.949973h48.764313v48.764313h-48.764313z" p-id="2788"></path><path d="M682.664258 780.189272h48.764313v48.760701h-48.764313zM682.664258 731.428571h48.764313v48.760701h-48.764313z" fill="#7A3B0F" p-id="2789" data-darkreader-inline-fill="" style="--darkreader-inline-fill:#6c503e;"></path><path d="M682.664258 682.664258h48.764313v48.764313h-48.764313zM682.664258 633.903558h48.764313v48.7607h-48.764313zM682.664258 585.142857h48.764313v48.760701h-48.764313z" fill="#311809" p-id="2790" data-darkreader-inline-fill="" style="--darkreader-inline-fill:#323537;"></path><path d="M682.664258 536.378544h48.764313v48.764313h-48.764313z" fill="#FC9956" p-id="2791" data-darkreader-inline-fill="" style="--darkreader-inline-fill:#f39a5e;"></path><path d="M682.664258 487.617843h48.764313v48.760701h-48.764313z" fill="#FE892D" p-id="2792" data-darkreader-inline-fill="" style="--darkreader-inline-fill:#e48f4d;"></path><path d="M682.664258 438.857143h48.764313v48.7607h-48.764313zM682.664258 390.096442h48.764313v48.760701h-48.764313zM682.664258 341.332129h48.764313v48.764313h-48.764313zM682.664258 292.571429h48.764313v48.7607h-48.764313zM682.664258 243.810728h48.764313V292.571429h-48.764313zM682.664258 195.046415h48.764313v48.764313h-48.764313z" fill="#7A3B0F" p-id="2793" data-darkreader-inline-fill="" style="--darkreader-inline-fill:#6c503e;"></path><path d="M682.664258 146.285714h48.764313v48.760701h-48.764313zM633.903558 828.949973h48.7607v48.764313h-48.7607z" p-id="2794"></path><path d="M633.903558 780.189272h48.7607v48.760701h-48.7607z" fill="#7A3B0F" p-id="2795" data-darkreader-inline-fill="" style="--darkreader-inline-fill:#6c503e;"></path><path d="M633.903558 731.428571h48.7607v48.760701h-48.7607z" fill="#311809" p-id="2796" data-darkreader-inline-fill="" style="--darkreader-inline-fill:#323537;"></path><path d="M633.903558 682.664258h48.7607v48.764313h-48.7607z" fill="#7A3B0F" p-id="2797" data-darkreader-inline-fill="" style="--darkreader-inline-fill:#6c503e;"></path><path d="M633.903558 633.903558h48.7607v48.7607h-48.7607zM633.903558 585.142857h48.7607v48.760701h-48.7607z" fill="#311809" p-id="2798" data-darkreader-inline-fill="" style="--darkreader-inline-fill:#323537;"></path><path d="M633.903558 536.378544h48.7607v48.764313h-48.7607z" fill="#FC9956" p-id="2799" data-darkreader-inline-fill="" style="--darkreader-inline-fill:#f39a5e;"></path><path d="M633.903558 487.617843h48.7607v48.760701h-48.7607z" fill="#FE892D" p-id="2800" data-darkreader-inline-fill="" style="--darkreader-inline-fill:#e48f4d;"></path><path d="M633.903558 438.857143h48.7607v48.7607h-48.7607zM633.903558 390.096442h48.7607v48.760701h-48.7607zM633.903558 341.332129h48.7607v48.764313h-48.7607zM633.903558 292.571429h48.7607v48.7607h-48.7607zM633.903558 243.810728h48.7607V292.571429h-48.7607zM633.903558 195.046415h48.7607v48.764313h-48.7607z" fill="#7A3B0F" p-id="2801" data-darkreader-inline-fill="" style="--darkreader-inline-fill:#6c503e;"></path><path d="M633.903558 146.285714h48.7607v48.760701h-48.7607zM585.142857 828.949973h48.760701v48.764313H585.142857z" p-id="2802"></path><path d="M585.142857 780.189272h48.760701v48.760701H585.142857zM585.142857 731.428571h48.760701v48.760701H585.142857zM585.142857 682.664258h48.760701v48.764313H585.142857z" fill="#7A3B0F" p-id="2803" data-darkreader-inline-fill="" style="--darkreader-inline-fill:#6c503e;"></path><path d="M585.142857 633.903558h48.760701v48.7607H585.142857zM585.142857 585.142857h48.760701v48.760701H585.142857zM585.142857 536.378544h48.760701v48.764313H585.142857z" fill="#311809" p-id="2804" data-darkreader-inline-fill="" style="--darkreader-inline-fill:#323537;"></path><path d="M585.142857 487.617843h48.760701v48.760701H585.142857zM585.142857 438.857143h48.760701v48.7607H585.142857zM585.142857 390.096442h48.760701v48.760701H585.142857zM585.142857 341.332129h48.760701v48.764313H585.142857z" fill="#FE892D" p-id="2805" data-darkreader-inline-fill="" style="--darkreader-inline-fill:#e48f4d;"></path><path d="M585.142857 292.571429h48.760701v48.7607H585.142857zM585.142857 243.810728h48.760701V292.571429H585.142857zM585.142857 195.046415h48.760701v48.764313H585.142857z" fill="#7A3B0F" p-id="2806" data-darkreader-inline-fill="" style="--darkreader-inline-fill:#6c503e;"></path><path d="M585.142857 146.285714h48.760701v48.760701H585.142857zM536.378544 828.949973h48.764313v48.764313h-48.764313z" p-id="2807"></path><path d="M536.378544 780.189272h48.764313v48.760701h-48.764313z" fill="#7A3B0F" p-id="2808" data-darkreader-inline-fill="" style="--darkreader-inline-fill:#6c503e;"></path><path d="M536.378544 731.428571h48.764313v48.760701h-48.764313zM536.378544 682.664258h48.764313v48.764313h-48.764313zM536.378544 633.903558h48.764313v48.7607h-48.764313zM536.378544 585.142857h48.764313v48.760701h-48.764313z" fill="#311809" p-id="2809" data-darkreader-inline-fill="" style="--darkreader-inline-fill:#323537;"></path><path d="M536.378544 536.378544h48.764313v48.764313h-48.764313zM536.378544 487.617843h48.764313v48.760701h-48.764313z" fill="#FE892D" p-id="2810" data-darkreader-inline-fill="" style="--darkreader-inline-fill:#e48f4d;"></path><path d="M536.378544 438.857143h48.764313v48.7607h-48.764313z" p-id="2811"></path><path d="M536.378544 390.096442h48.764313v48.760701h-48.764313z" fill="#FE892D" p-id="2812" data-darkreader-inline-fill="" style="--darkreader-inline-fill:#e48f4d;"></path><path d="M536.378544 341.332129h48.764313v48.764313h-48.764313z" fill="#FFFFFF" p-id="2813" data-darkreader-inline-fill="" style="--darkreader-inline-fill:#f2f0ed;"></path><path d="M536.378544 292.571429h48.764313v48.7607h-48.764313zM536.378544 243.810728h48.764313V292.571429h-48.764313zM536.378544 195.046415h48.764313v48.764313h-48.764313z" fill="#FE892D" p-id="2814" data-darkreader-inline-fill="" style="--darkreader-inline-fill:#e48f4d;"></path><path d="M536.378544 146.285714h48.764313v48.760701h-48.764313zM487.617843 828.949973h48.760701v48.764313h-48.760701z" p-id="2815"></path><path d="M487.617843 780.189272h48.760701v48.760701h-48.760701z" fill="#7A3B0F" p-id="2816" data-darkreader-inline-fill="" style="--darkreader-inline-fill:#6c503e;"></path><path d="M487.617843 731.428571h48.760701v48.760701h-48.760701zM487.617843 682.664258h48.760701v48.764313h-48.760701zM487.617843 633.903558h48.760701v48.7607h-48.760701zM487.617843 585.142857h48.760701v48.760701h-48.760701z" fill="#311809" p-id="2817" data-darkreader-inline-fill="" style="--darkreader-inline-fill:#323537;"></path><path d="M487.617843 536.378544h48.760701v48.764313h-48.760701z" fill="#FE892D" p-id="2818" data-darkreader-inline-fill="" style="--darkreader-inline-fill:#e48f4d;"></path><path d="M487.617843 487.617843h48.760701v48.760701h-48.760701zM487.617843 438.857143h48.760701v48.7607h-48.760701z" p-id="2819"></path><path d="M487.617843 390.096442h48.760701v48.760701h-48.760701z" fill="#FE892D" p-id="2820" data-darkreader-inline-fill="" style="--darkreader-inline-fill:#e48f4d;"></path><path d="M487.617843 341.332129h48.760701v48.764313h-48.760701z" fill="#DD0030" p-id="2821" data-darkreader-inline-fill="" style="--darkreader-inline-fill:#ac445a;"></path><path d="M487.617843 292.571429h48.760701v48.7607h-48.760701z" fill="#FE892D" p-id="2822" data-darkreader-inline-fill="" style="--darkreader-inline-fill:#e48f4d;"></path><path d="M487.617843 243.810728h48.760701V292.571429h-48.760701z" fill="#DD0030" p-id="2823" data-darkreader-inline-fill="" style="--darkreader-inline-fill:#ac445a;"></path><path d="M487.617843 195.046415h48.760701v48.764313h-48.760701z" fill="#FE892D" p-id="2824" data-darkreader-inline-fill="" style="--darkreader-inline-fill:#e48f4d;"></path><path d="M487.617843 146.285714h48.760701v48.760701h-48.760701zM438.857143 828.949973h48.7607v48.764313h-48.7607z" p-id="2825"></path><path d="M438.857143 780.189272h48.7607v48.760701h-48.7607z" fill="#7A3B0F" p-id="2826" data-darkreader-inline-fill="" style="--darkreader-inline-fill:#6c503e;"></path><path d="M438.857143 731.428571h48.7607v48.760701h-48.7607zM438.857143 682.664258h48.7607v48.764313h-48.7607zM438.857143 633.903558h48.7607v48.7607h-48.7607zM438.857143 585.142857h48.7607v48.760701h-48.7607z" fill="#311809" p-id="2827" data-darkreader-inline-fill="" style="--darkreader-inline-fill:#323537;"></path><path d="M438.857143 536.378544h48.7607v48.764313h-48.7607zM438.857143 487.617843h48.7607v48.760701h-48.7607z" fill="#FE892D" p-id="2828" data-darkreader-inline-fill="" style="--darkreader-inline-fill:#e48f4d;"></path><path d="M438.857143 438.857143h48.7607v48.7607h-48.7607z" p-id="2829"></path><path d="M438.857143 390.096442h48.7607v48.760701h-48.7607zM438.857143 341.332129h48.7607v48.764313h-48.7607z" fill="#FE892D" p-id="2830" data-darkreader-inline-fill="" style="--darkreader-inline-fill:#e48f4d;"></path><path d="M438.857143 292.571429h48.7607v48.7607h-48.7607z" fill="#FFFFFF" p-id="2831" data-darkreader-inline-fill="" style="--darkreader-inline-fill:#f2f0ed;"></path><path d="M438.857143 243.810728h48.7607V292.571429h-48.7607zM438.857143 195.046415h48.7607v48.764313h-48.7607z" fill="#FE892D" p-id="2832" data-darkreader-inline-fill="" style="--darkreader-inline-fill:#e48f4d;"></path><path d="M438.857143 146.285714h48.7607v48.760701h-48.7607zM390.096442 828.949973h48.760701v48.764313h-48.760701z" p-id="2833"></path><path d="M390.096442 780.189272h48.760701v48.760701h-48.760701zM390.096442 731.428571h48.760701v48.760701h-48.760701zM390.096442 682.664258h48.760701v48.764313h-48.760701z" fill="#7A3B0F" p-id="2834" data-darkreader-inline-fill="" style="--darkreader-inline-fill:#6c503e;"></path><path d="M390.096442 633.903558h48.760701v48.7607h-48.760701zM390.096442 585.142857h48.760701v48.760701h-48.760701zM390.096442 536.378544h48.760701v48.764313h-48.760701z" fill="#311809" p-id="2835" data-darkreader-inline-fill="" style="--darkreader-inline-fill:#323537;"></path><path d="M390.096442 487.617843h48.760701v48.760701h-48.760701zM390.096442 438.857143h48.760701v48.7607h-48.760701zM390.096442 390.096442h48.760701v48.760701h-48.760701zM390.096442 341.332129h48.760701v48.764313h-48.760701z" fill="#FE892D" p-id="2836" data-darkreader-inline-fill="" style="--darkreader-inline-fill:#e48f4d;"></path><path d="M390.096442 292.571429h48.760701v48.7607h-48.760701zM390.096442 243.810728h48.760701V292.571429h-48.760701zM390.096442 195.046415h48.760701v48.764313h-48.760701z" fill="#7A3B0F" p-id="2837" data-darkreader-inline-fill="" style="--darkreader-inline-fill:#6c503e;"></path><path d="M390.096442 146.285714h48.760701v48.760701h-48.760701zM341.332129 828.949973h48.764313v48.764313H341.332129z" p-id="2838"></path><path d="M341.332129 780.189272h48.764313v48.760701H341.332129z" fill="#7A3B0F" p-id="2839" data-darkreader-inline-fill="" style="--darkreader-inline-fill:#6c503e;"></path><path d="M341.332129 731.428571h48.764313v48.760701H341.332129z" fill="#311809" p-id="2840" data-darkreader-inline-fill="" style="--darkreader-inline-fill:#323537;"></path><path d="M341.332129 682.664258h48.764313v48.764313H341.332129z" fill="#7A3B0F" p-id="2841" data-darkreader-inline-fill="" style="--darkreader-inline-fill:#6c503e;"></path><path d="M341.332129 633.903558h48.764313v48.7607H341.332129z" fill="#FFFFFF" p-id="2842" data-darkreader-inline-fill="" style="--darkreader-inline-fill:#f2f0ed;"></path><path d="M341.332129 585.142857h48.764313v48.760701H341.332129z" fill="#311809" p-id="2843" data-darkreader-inline-fill="" style="--darkreader-inline-fill:#323537;"></path><path d="M341.332129 536.378544h48.764313v48.764313H341.332129z" fill="#FC9956" p-id="2844" data-darkreader-inline-fill="" style="--darkreader-inline-fill:#f39a5e;"></path><path d="M341.332129 487.617843h48.764313v48.760701H341.332129z" fill="#FE892D" p-id="2845" data-darkreader-inline-fill="" style="--darkreader-inline-fill:#e48f4d;"></path><path d="M341.332129 438.857143h48.764313v48.7607H341.332129zM341.332129 390.096442h48.764313v48.760701H341.332129zM341.332129 341.332129h48.764313v48.764313H341.332129zM341.332129 292.571429h48.764313v48.7607H341.332129zM341.332129 243.810728h48.764313V292.571429H341.332129zM341.332129 195.046415h48.764313v48.764313H341.332129z" fill="#7A3B0F" p-id="2846" data-darkreader-inline-fill="" style="--darkreader-inline-fill:#6c503e;"></path><path d="M341.332129 146.285714h48.764313v48.760701H341.332129zM292.571429 828.949973h48.7607v48.764313H292.571429z" p-id="2847"></path><path d="M292.571429 780.189272h48.7607v48.760701H292.571429zM292.571429 731.428571h48.7607v48.760701H292.571429z" fill="#7A3B0F" p-id="2848" data-darkreader-inline-fill="" style="--darkreader-inline-fill:#6c503e;"></path><path d="M292.571429 682.664258h48.7607v48.764313H292.571429z" fill="#311809" p-id="2849" data-darkreader-inline-fill="" style="--darkreader-inline-fill:#323537;"></path><path d="M292.571429 633.903558h48.7607v48.7607H292.571429zM292.571429 585.142857h48.7607v48.760701H292.571429z" fill="#FFFFFF" p-id="2850" data-darkreader-inline-fill="" style="--darkreader-inline-fill:#f2f0ed;"></path><path d="M292.571429 536.378544h48.7607v48.764313H292.571429z" fill="#FC9956" p-id="2851" data-darkreader-inline-fill="" style="--darkreader-inline-fill:#f39a5e;"></path><path d="M292.571429 487.617843h48.7607v48.760701H292.571429z" fill="#FE892D" p-id="2852" data-darkreader-inline-fill="" style="--darkreader-inline-fill:#e48f4d;"></path><path d="M292.571429 438.857143h48.7607v48.7607H292.571429zM292.571429 390.096442h48.7607v48.760701H292.571429zM292.571429 341.332129h48.7607v48.764313H292.571429zM292.571429 292.571429h48.7607v48.7607H292.571429zM292.571429 243.810728h48.7607V292.571429H292.571429zM292.571429 195.046415h48.7607v48.764313H292.571429z" fill="#7A3B0F" p-id="2853" data-darkreader-inline-fill="" style="--darkreader-inline-fill:#6c503e;"></path><path d="M292.571429 146.285714h48.7607v48.760701H292.571429zM243.810728 877.714286H292.571429v48.7607H243.810728z" p-id="2854"></path><path d="M243.810728 828.949973H292.571429v48.764313H243.810728zM243.810728 780.189272H292.571429v48.760701H243.810728z" fill="#7A3B0F" p-id="2855" data-darkreader-inline-fill="" style="--darkreader-inline-fill:#6c503e;"></path><path d="M243.810728 731.428571H292.571429v48.760701H243.810728z" fill="#311809" p-id="2856" data-darkreader-inline-fill="" style="--darkreader-inline-fill:#323537;"></path><path d="M243.810728 682.664258H292.571429v48.764313H243.810728z" fill="#7A3B0F" p-id="2857" data-darkreader-inline-fill="" style="--darkreader-inline-fill:#6c503e;"></path><path d="M243.810728 633.903558H292.571429v48.7607H243.810728zM243.810728 585.142857H292.571429v48.760701H243.810728z" fill="#311809" p-id="2858" data-darkreader-inline-fill="" style="--darkreader-inline-fill:#323537;"></path><path d="M243.810728 536.378544H292.571429v48.764313H243.810728z" fill="#FC9956" p-id="2859" data-darkreader-inline-fill="" style="--darkreader-inline-fill:#f39a5e;"></path><path d="M243.810728 487.617843H292.571429v48.760701H243.810728zM243.810728 438.857143H292.571429v48.7607H243.810728zM243.810728 390.096442H292.571429v48.760701H243.810728zM243.810728 341.332129H292.571429v48.764313H243.810728z" fill="#FE892D" p-id="2860" data-darkreader-inline-fill="" style="--darkreader-inline-fill:#e48f4d;"></path><path d="M243.810728 292.571429H292.571429v48.7607H243.810728z" fill="#FFFFFF" p-id="2861" data-darkreader-inline-fill="" style="--darkreader-inline-fill:#f2f0ed;"></path><path d="M243.810728 243.810728H292.571429V292.571429H243.810728zM243.810728 195.046415H292.571429v48.764313H243.810728z" fill="#FE892D" p-id="2862" data-darkreader-inline-fill="" style="--darkreader-inline-fill:#e48f4d;"></path><path d="M243.810728 146.285714H292.571429v48.760701H243.810728zM195.046415 877.714286h48.764313v48.7607H195.046415z" p-id="2863"></path><path d="M195.046415 828.949973h48.764313v48.764313H195.046415zM195.046415 780.189272h48.764313v48.760701H195.046415zM195.046415 731.428571h48.764313v48.760701H195.046415z" fill="#7A3B0F" p-id="2864" data-darkreader-inline-fill="" style="--darkreader-inline-fill:#6c503e;"></path><path d="M195.046415 682.664258h48.764313v48.764313H195.046415zM195.046415 633.903558h48.764313v48.7607H195.046415zM195.046415 585.142857h48.764313v48.760701H195.046415z" fill="#311809" p-id="2865" data-darkreader-inline-fill="" style="--darkreader-inline-fill:#323537;"></path><path d="M195.046415 536.378544h48.764313v48.764313H195.046415z" fill="#FC9956" p-id="2866" data-darkreader-inline-fill="" style="--darkreader-inline-fill:#f39a5e;"></path><path d="M195.046415 487.617843h48.764313v48.760701H195.046415z" fill="#FE892D" p-id="2867" data-darkreader-inline-fill="" style="--darkreader-inline-fill:#e48f4d;"></path><path d="M195.046415 438.857143h48.764313v48.7607H195.046415z" fill="#FFFFFF" p-id="2868" data-darkreader-inline-fill="" style="--darkreader-inline-fill:#f2f0ed;"></path><path d="M195.046415 390.096442h48.764313v48.760701H195.046415z" fill="#7A3B0F" p-id="2869" data-darkreader-inline-fill="" style="--darkreader-inline-fill:#6c503e;"></path><path d="M195.046415 341.332129h48.764313v48.764313H195.046415z" fill="#FE892D" p-id="2870" data-darkreader-inline-fill="" style="--darkreader-inline-fill:#e48f4d;"></path><path d="M195.046415 292.571429h48.764313v48.7607H195.046415z" fill="#FFFFFF" p-id="2871" data-darkreader-inline-fill="" style="--darkreader-inline-fill:#f2f0ed;"></path><path d="M195.046415 243.810728h48.764313V292.571429H195.046415zM195.046415 195.046415h48.764313v48.764313H195.046415z" fill="#7A3B0F" p-id="2872" data-darkreader-inline-fill="" style="--darkreader-inline-fill:#6c503e;"></path><path d="M195.046415 146.285714h48.764313v48.760701H195.046415z" fill="#FE892D" p-id="2873" data-darkreader-inline-fill="" style="--darkreader-inline-fill:#e48f4d;"></path><path d="M195.046415 97.525014h48.764313v48.7607H195.046415zM146.285714 828.949973h48.760701v48.764313H146.285714zM146.285714 780.189272h48.760701v48.760701H146.285714z" p-id="2874"></path><path d="M146.285714 731.428571h48.760701v48.760701H146.285714zM146.285714 682.664258h48.760701v48.764313H146.285714zM146.285714 633.903558h48.760701v48.7607H146.285714zM146.285714 585.142857h48.760701v48.760701H146.285714z" fill="#7A3B0F" p-id="2875" data-darkreader-inline-fill="" style="--darkreader-inline-fill:#6c503e;"></path><path d="M146.285714 536.378544h48.760701v48.764313H146.285714zM146.285714 487.617843h48.760701v48.760701H146.285714zM146.285714 438.857143h48.760701v48.7607H146.285714z" fill="#FE892D" p-id="2876" data-darkreader-inline-fill="" style="--darkreader-inline-fill:#e48f4d;"></path><path d="M146.285714 390.096442h48.760701v48.760701H146.285714zM146.285714 341.332129h48.760701v48.764313H146.285714zM146.285714 292.571429h48.760701v48.7607H146.285714zM146.285714 243.810728h48.760701V292.571429H146.285714zM146.285714 195.046415h48.760701v48.764313H146.285714z" fill="#7A3B0F" p-id="2877" data-darkreader-inline-fill="" style="--darkreader-inline-fill:#6c503e;"></path><path d="M146.285714 146.285714h48.760701v48.760701H146.285714z" fill="#FE892D" p-id="2878" data-darkreader-inline-fill="" style="--darkreader-inline-fill:#e48f4d;"></path><path d="M146.285714 97.525014h48.760701v48.7607H146.285714zM97.525014 780.189272h48.7607v48.760701H97.525014zM97.525014 731.428571h48.7607v48.760701H97.525014zM97.525014 682.664258h48.7607v48.764313H97.525014zM97.525014 633.903558h48.7607v48.7607H97.525014zM97.525014 585.142857h48.7607v48.760701H97.525014z" p-id="2879"></path><path d="M97.525014 536.378544h48.7607v48.764313H97.525014z" fill="#FE892D" p-id="2880" data-darkreader-inline-fill="" style="--darkreader-inline-fill:#e48f4d;"></path><path d="M97.525014 487.617843h48.7607v48.760701H97.525014z" fill="#DD0030" p-id="2881" data-darkreader-inline-fill="" style="--darkreader-inline-fill:#ac445a;"></path><path d="M97.525014 438.857143h48.7607v48.7607H97.525014zM97.525014 390.096442h48.7607v48.760701H97.525014zM97.525014 341.332129h48.7607v48.764313H97.525014zM97.525014 292.571429h48.7607v48.7607H97.525014z" fill="#FE892D" p-id="2882" data-darkreader-inline-fill="" style="--darkreader-inline-fill:#e48f4d;"></path><path d="M97.525014 243.810728h48.7607V292.571429H97.525014z" fill="#FFFFFF" p-id="2883" data-darkreader-inline-fill="" style="--darkreader-inline-fill:#f2f0ed;"></path><path d="M97.525014 195.046415h48.7607v48.764313H97.525014zM97.525014 146.285714h48.7607v48.760701H97.525014z" fill="#FE892D" p-id="2884" data-darkreader-inline-fill="" style="--darkreader-inline-fill:#e48f4d;"></path><path d="M97.525014 97.525014h48.7607v48.7607H97.525014zM48.760701 585.142857h48.764313v48.760701H48.760701z" p-id="2885"></path><path d="M48.760701 536.378544h48.764313v48.764313H48.760701zM48.760701 487.617843h48.764313v48.760701H48.760701z" fill="#FE892D" p-id="2886" data-darkreader-inline-fill="" style="--darkreader-inline-fill:#e48f4d;"></path><path d="M48.760701 438.857143h48.764313v48.7607H48.760701zM48.760701 390.096442h48.764313v48.760701H48.760701zM48.760701 341.332129h48.764313v48.764313H48.760701zM48.760701 292.571429h48.764313v48.7607H48.760701zM48.760701 243.810728h48.764313V292.571429H48.760701zM48.760701 195.046415h48.764313v48.764313H48.760701zM48.760701 146.285714h48.764313v48.760701H48.760701zM0 536.378544h48.760701v48.764313H0zM0 487.617843h48.760701v48.760701H0z" p-id="2887"></path></svg>