<?xml version="1.0" standalone="no"?><!DOCTYPE svg PUBLIC "-//W3C//DTD SVG 1.1//EN" "http://www.w3.org/Graphics/SVG/1.1/DTD/svg11.dtd"><svg t="1652343277560" class="icon" viewBox="0 0 1024 1024" version="1.1" xmlns="http://www.w3.org/2000/svg" p-id="2947" data-darkreader-inline-fill="" xmlns:xlink="http://www.w3.org/1999/xlink" width="128" height="128"><defs><style type="text/css"></style></defs><path d="M780.189272 975.235687h48.760701v48.764313h-48.760701zM975.235687 438.857143h48.764313v48.7607h-48.764313zM975.235687 390.096442h48.764313v48.760701h-48.764313zM975.235687 341.332129h48.764313v48.764313h-48.764313zM926.474986 536.378544h48.760701v48.764313h-48.760701zM926.474986 487.617843h48.760701v48.760701h-48.760701zM926.474986 438.857143h48.760701v48.7607h-48.760701z" p-id="2948"></path><path d="M926.474986 390.096442h48.760701v48.760701h-48.760701z" fill="#FFB62D" p-id="2949" data-darkreader-inline-fill="" style="--darkreader-inline-fill:#e4af4d;"></path><path d="M926.474986 341.332129h48.760701v48.764313h-48.760701zM877.714286 828.949973h48.7607v48.764313H877.714286zM877.714286 780.189272h48.7607v48.760701H877.714286zM877.714286 585.142857h48.7607v48.760701H877.714286zM877.714286 536.378544h48.7607v48.764313H877.714286z" p-id="2950"></path><path d="M877.714286 487.617843h48.7607v48.760701H877.714286zM877.714286 438.857143h48.7607v48.7607H877.714286zM877.714286 390.096442h48.7607v48.760701H877.714286zM877.714286 341.332129h48.7607v48.764313H877.714286z" fill="#FFB62D" p-id="2951" data-darkreader-inline-fill="" style="--darkreader-inline-fill:#e4af4d;"></path><path d="M877.714286 292.571429h48.7607v48.7607H877.714286zM828.949973 877.714286h48.764313v48.7607h-48.764313z" p-id="2952"></path><path d="M828.949973 828.949973h48.764313v48.764313h-48.764313zM828.949973 780.189272h48.764313v48.760701h-48.764313z" fill="#FFB62D" p-id="2953" data-darkreader-inline-fill="" style="--darkreader-inline-fill:#e4af4d;"></path><path d="M828.949973 731.428571h48.764313v48.760701h-48.764313zM828.949973 633.903558h48.764313v48.7607h-48.764313zM828.949973 585.142857h48.764313v48.760701h-48.764313z" p-id="2954"></path><path d="M828.949973 536.378544h48.764313v48.764313h-48.764313zM828.949973 487.617843h48.764313v48.760701h-48.764313z" fill="#FFB62D" p-id="2955" data-darkreader-inline-fill="" style="--darkreader-inline-fill:#e4af4d;"></path><path d="M828.949973 438.857143h48.764313v48.7607h-48.764313z" fill="#FECF48" p-id="2956" data-darkreader-inline-fill="" style="--darkreader-inline-fill:#eec758;"></path><path d="M828.949973 390.096442h48.764313v48.760701h-48.764313zM828.949973 341.332129h48.764313v48.764313h-48.764313z" fill="#FFB62D" p-id="2957" data-darkreader-inline-fill="" style="--darkreader-inline-fill:#e4af4d;"></path><path d="M828.949973 292.571429h48.764313v48.7607h-48.764313zM780.189272 926.474986h48.760701v48.760701h-48.760701z" p-id="2958"></path><path d="M780.189272 877.714286h48.760701v48.7607h-48.760701zM780.189272 828.949973h48.760701v48.764313h-48.760701zM780.189272 780.189272h48.760701v48.760701h-48.760701zM780.189272 731.428571h48.760701v48.760701h-48.760701z" fill="#FFB62D" p-id="2959" data-darkreader-inline-fill="" style="--darkreader-inline-fill:#e4af4d;"></path><path d="M780.189272 682.664258h48.760701v48.764313h-48.760701zM780.189272 633.903558h48.760701v48.7607h-48.760701z" p-id="2960"></path><path d="M780.189272 585.142857h48.760701v48.760701h-48.760701zM780.189272 536.378544h48.760701v48.764313h-48.760701zM780.189272 487.617843h48.760701v48.760701h-48.760701z" fill="#FFB62D" p-id="2961" data-darkreader-inline-fill="" style="--darkreader-inline-fill:#e4af4d;"></path><path d="M780.189272 438.857143h48.760701v48.7607h-48.760701z" fill="#FECF48" p-id="2962" data-darkreader-inline-fill="" style="--darkreader-inline-fill:#eec758;"></path><path d="M780.189272 390.096442h48.760701v48.760701h-48.760701zM780.189272 341.332129h48.760701v48.764313h-48.760701z" fill="#FFB62D" p-id="2963" data-darkreader-inline-fill="" style="--darkreader-inline-fill:#e4af4d;"></path><path d="M780.189272 292.571429h48.760701v48.7607h-48.760701zM731.428571 975.235687h48.760701v48.764313h-48.760701z" p-id="2964"></path><path d="M731.428571 926.474986h48.760701v48.760701h-48.760701zM731.428571 877.714286h48.760701v48.7607h-48.760701z" fill="#FFB62D" p-id="2965" data-darkreader-inline-fill="" style="--darkreader-inline-fill:#e4af4d;"></path><path d="M731.428571 828.949973h48.760701v48.764313h-48.760701z" fill="#FECF48" p-id="2966" data-darkreader-inline-fill="" style="--darkreader-inline-fill:#eec758;"></path><path d="M731.428571 780.189272h48.760701v48.760701h-48.760701zM731.428571 731.428571h48.760701v48.760701h-48.760701zM731.428571 682.664258h48.760701v48.764313h-48.760701zM731.428571 633.903558h48.760701v48.7607h-48.760701zM731.428571 585.142857h48.760701v48.760701h-48.760701zM731.428571 536.378544h48.760701v48.764313h-48.760701z" fill="#FFB62D" p-id="2967" data-darkreader-inline-fill="" style="--darkreader-inline-fill:#e4af4d;"></path><path d="M731.428571 487.617843h48.760701v48.760701h-48.760701zM731.428571 438.857143h48.760701v48.7607h-48.760701zM731.428571 390.096442h48.760701v48.760701h-48.760701z" fill="#FECF48" p-id="2968" data-darkreader-inline-fill="" style="--darkreader-inline-fill:#eec758;"></path><path d="M731.428571 341.332129h48.760701v48.764313h-48.760701zM731.428571 292.571429h48.760701v48.7607h-48.760701z" fill="#FFB62D" p-id="2969" data-darkreader-inline-fill="" style="--darkreader-inline-fill:#e4af4d;"></path><path d="M731.428571 243.810728h48.760701V292.571429h-48.760701zM682.664258 975.235687h48.764313v48.764313h-48.764313z" p-id="2970"></path><path d="M682.664258 926.474986h48.764313v48.760701h-48.764313zM682.664258 877.714286h48.764313v48.7607h-48.764313zM682.664258 828.949973h48.764313v48.764313h-48.764313z" fill="#FFB62D" p-id="2971" data-darkreader-inline-fill="" style="--darkreader-inline-fill:#e4af4d;"></path><path d="M682.664258 780.189272h48.764313v48.760701h-48.764313zM682.664258 731.428571h48.764313v48.760701h-48.764313zM682.664258 682.664258h48.764313v48.764313h-48.764313zM682.664258 633.903558h48.764313v48.7607h-48.764313z" fill="#FECF48" p-id="2972" data-darkreader-inline-fill="" style="--darkreader-inline-fill:#eec758;"></path><path d="M682.664258 585.142857h48.764313v48.760701h-48.764313z" fill="#FFB62D" p-id="2973" data-darkreader-inline-fill="" style="--darkreader-inline-fill:#e4af4d;"></path><path d="M682.664258 536.378544h48.764313v48.764313h-48.764313zM682.664258 487.617843h48.764313v48.760701h-48.764313zM682.664258 438.857143h48.764313v48.7607h-48.764313zM682.664258 390.096442h48.764313v48.760701h-48.764313z" fill="#FECF48" p-id="2974" data-darkreader-inline-fill="" style="--darkreader-inline-fill:#eec758;"></path><path d="M682.664258 341.332129h48.764313v48.764313h-48.764313zM682.664258 292.571429h48.764313v48.7607h-48.764313z" fill="#FFB62D" p-id="2975" data-darkreader-inline-fill="" style="--darkreader-inline-fill:#e4af4d;"></path><path d="M682.664258 243.810728h48.764313V292.571429h-48.764313zM633.903558 926.474986h48.7607v48.760701h-48.7607z" p-id="2976"></path><path d="M633.903558 877.714286h48.7607v48.7607h-48.7607zM633.903558 828.949973h48.7607v48.764313h-48.7607zM633.903558 780.189272h48.7607v48.760701h-48.7607z" fill="#FFB62D" p-id="2977" data-darkreader-inline-fill="" style="--darkreader-inline-fill:#e4af4d;"></path><path d="M633.903558 731.428571h48.7607v48.760701h-48.7607zM633.903558 682.664258h48.7607v48.764313h-48.7607zM633.903558 633.903558h48.7607v48.7607h-48.7607zM633.903558 585.142857h48.7607v48.760701h-48.7607zM633.903558 536.378544h48.7607v48.764313h-48.7607zM633.903558 487.617843h48.7607v48.760701h-48.7607zM633.903558 438.857143h48.7607v48.7607h-48.7607zM633.903558 390.096442h48.7607v48.760701h-48.7607zM633.903558 341.332129h48.7607v48.764313h-48.7607z" fill="#FECF48" p-id="2978" data-darkreader-inline-fill="" style="--darkreader-inline-fill:#eec758;"></path><path d="M633.903558 292.571429h48.7607v48.7607h-48.7607zM633.903558 243.810728h48.7607V292.571429h-48.7607z" fill="#FFB62D" p-id="2979" data-darkreader-inline-fill="" style="--darkreader-inline-fill:#e4af4d;"></path><path d="M633.903558 195.046415h48.7607v48.764313h-48.7607zM633.903558 146.285714h48.7607v48.760701h-48.7607zM585.142857 926.474986h48.760701v48.760701H585.142857z" p-id="2980"></path><path d="M585.142857 877.714286h48.760701v48.7607H585.142857zM585.142857 828.949973h48.760701v48.764313H585.142857zM585.142857 780.189272h48.760701v48.760701H585.142857z" fill="#FFB62D" p-id="2981" data-darkreader-inline-fill="" style="--darkreader-inline-fill:#e4af4d;"></path><path d="M585.142857 731.428571h48.760701v48.760701H585.142857zM585.142857 682.664258h48.760701v48.764313H585.142857zM585.142857 633.903558h48.760701v48.7607H585.142857zM585.142857 585.142857h48.760701v48.760701H585.142857zM585.142857 536.378544h48.760701v48.764313H585.142857zM585.142857 487.617843h48.760701v48.760701H585.142857zM585.142857 438.857143h48.760701v48.7607H585.142857z" fill="#FECF48" p-id="2982" data-darkreader-inline-fill="" style="--darkreader-inline-fill:#eec758;"></path><path d="M585.142857 390.096442h48.760701v48.760701H585.142857z" fill="#FFFFFF" p-id="2983" data-darkreader-inline-fill="" style="--darkreader-inline-fill:#f2f0ed;"></path><path d="M585.142857 341.332129h48.760701v48.764313H585.142857zM585.142857 292.571429h48.760701v48.7607H585.142857z" fill="#FECF48" p-id="2984" data-darkreader-inline-fill="" style="--darkreader-inline-fill:#eec758;"></path><path d="M585.142857 243.810728h48.760701V292.571429H585.142857zM585.142857 195.046415h48.760701v48.764313H585.142857zM585.142857 146.285714h48.760701v48.760701H585.142857z" fill="#FFB62D" p-id="2985" data-darkreader-inline-fill="" style="--darkreader-inline-fill:#e4af4d;"></path><path d="M585.142857 97.525014h48.760701v48.7607H585.142857zM585.142857 48.760701h48.760701v48.764313H585.142857zM536.378544 926.474986h48.764313v48.760701h-48.764313zM536.378544 877.714286h48.764313v48.7607h-48.764313z" p-id="2986"></path><path d="M536.378544 828.949973h48.764313v48.764313h-48.764313zM536.378544 780.189272h48.764313v48.760701h-48.764313zM536.378544 731.428571h48.764313v48.760701h-48.764313z" fill="#FFB62D" p-id="2987" data-darkreader-inline-fill="" style="--darkreader-inline-fill:#e4af4d;"></path><path d="M536.378544 682.664258h48.764313v48.764313h-48.764313zM536.378544 633.903558h48.764313v48.7607h-48.764313zM536.378544 585.142857h48.764313v48.760701h-48.764313zM536.378544 536.378544h48.764313v48.764313h-48.764313zM536.378544 487.617843h48.764313v48.760701h-48.764313zM536.378544 438.857143h48.764313v48.7607h-48.764313zM536.378544 390.096442h48.764313v48.760701h-48.764313z" fill="#FECF48" p-id="2988" data-darkreader-inline-fill="" style="--darkreader-inline-fill:#eec758;"></path><path d="M536.378544 341.332129h48.764313v48.764313h-48.764313z" fill="#FFFFFF" p-id="2989" data-darkreader-inline-fill="" style="--darkreader-inline-fill:#f2f0ed;"></path><path d="M536.378544 292.571429h48.764313v48.7607h-48.764313zM536.378544 243.810728h48.764313V292.571429h-48.764313z" fill="#FECF48" p-id="2990" data-darkreader-inline-fill="" style="--darkreader-inline-fill:#eec758;"></path><path d="M536.378544 195.046415h48.764313v48.764313h-48.764313zM536.378544 146.285714h48.764313v48.760701h-48.764313z" fill="#FFB62D" p-id="2991" data-darkreader-inline-fill="" style="--darkreader-inline-fill:#e4af4d;"></path><path d="M536.378544 97.525014h48.764313v48.7607h-48.764313z" fill="#FFB62D" p-id="2992" data-darkreader-inline-fill="" style="--darkreader-inline-fill:#e4af4d;"></path><path d="M536.378544 48.760701h48.764313v48.764313h-48.764313zM536.378544 0h48.764313v48.760701h-48.764313zM487.617843 877.714286h48.760701v48.7607h-48.760701z" p-id="2993"></path><path d="M487.617843 828.949973h48.760701v48.764313h-48.760701zM487.617843 780.189272h48.760701v48.760701h-48.760701zM487.617843 731.428571h48.760701v48.760701h-48.760701zM487.617843 682.664258h48.760701v48.764313h-48.760701z" fill="#FFB62D" p-id="2994" data-darkreader-inline-fill="" style="--darkreader-inline-fill:#e4af4d;"></path><path d="M487.617843 633.903558h48.760701v48.7607h-48.760701zM487.617843 585.142857h48.760701v48.760701h-48.760701zM487.617843 536.378544h48.760701v48.764313h-48.760701zM487.617843 487.617843h48.760701v48.760701h-48.760701zM487.617843 438.857143h48.760701v48.7607h-48.760701zM487.617843 390.096442h48.760701v48.760701h-48.760701zM487.617843 341.332129h48.760701v48.764313h-48.760701zM487.617843 292.571429h48.760701v48.7607h-48.760701zM487.617843 243.810728h48.760701V292.571429h-48.760701zM487.617843 195.046415h48.760701v48.764313h-48.760701z" fill="#FECF48" p-id="2995" data-darkreader-inline-fill="" style="--darkreader-inline-fill:#eec758;"></path><path d="M487.617843 146.285714h48.760701v48.760701h-48.760701z" fill="#FFB62D" p-id="2996" data-darkreader-inline-fill="" style="--darkreader-inline-fill:#e4af4d;"></path><path d="M487.617843 97.525014h48.760701v48.7607h-48.760701zM487.617843 48.760701h48.760701v48.764313h-48.760701z" fill="#FFB62D" p-id="2997" data-darkreader-inline-fill="" style="--darkreader-inline-fill:#e4af4d;"></path><path d="M487.617843 0h48.760701v48.760701h-48.760701zM438.857143 877.714286h48.7607v48.7607h-48.7607z" p-id="2998"></path><path d="M438.857143 828.949973h48.7607v48.764313h-48.7607zM438.857143 780.189272h48.7607v48.760701h-48.7607zM438.857143 731.428571h48.7607v48.760701h-48.7607z" fill="#FFB62D" p-id="2999" data-darkreader-inline-fill="" style="--darkreader-inline-fill:#e4af4d;"></path><path d="M438.857143 682.664258h48.7607v48.764313h-48.7607zM438.857143 633.903558h48.7607v48.7607h-48.7607zM438.857143 585.142857h48.7607v48.760701h-48.7607zM438.857143 536.378544h48.7607v48.764313h-48.7607zM438.857143 487.617843h48.7607v48.760701h-48.7607zM438.857143 438.857143h48.7607v48.7607h-48.7607zM438.857143 390.096442h48.7607v48.760701h-48.7607zM438.857143 341.332129h48.7607v48.764313h-48.7607zM438.857143 292.571429h48.7607v48.7607h-48.7607zM438.857143 243.810728h48.7607V292.571429h-48.7607z" fill="#FECF48" p-id="3000" data-darkreader-inline-fill="" style="--darkreader-inline-fill:#eec758;"></path><path d="M438.857143 195.046415h48.7607v48.764313h-48.7607zM438.857143 146.285714h48.7607v48.760701h-48.7607z" fill="#FFB62D" p-id="3001" data-darkreader-inline-fill="" style="--darkreader-inline-fill:#e4af4d;"></path><path d="M438.857143 97.525014h48.7607v48.7607h-48.7607z" fill="#FFB62D" p-id="3002" data-darkreader-inline-fill="" style="--darkreader-inline-fill:#e4af4d;"></path><path d="M438.857143 48.760701h48.7607v48.764313h-48.7607zM438.857143 0h48.7607v48.760701h-48.7607zM390.096442 926.474986h48.760701v48.760701h-48.760701zM390.096442 877.714286h48.760701v48.7607h-48.760701z" p-id="3003"></path><path d="M390.096442 828.949973h48.760701v48.764313h-48.760701zM390.096442 780.189272h48.760701v48.760701h-48.760701zM390.096442 731.428571h48.760701v48.760701h-48.760701z" fill="#FFB62D" p-id="3004" data-darkreader-inline-fill="" style="--darkreader-inline-fill:#e4af4d;"></path><path d="M390.096442 682.664258h48.760701v48.764313h-48.760701zM390.096442 633.903558h48.760701v48.7607h-48.760701zM390.096442 585.142857h48.760701v48.760701h-48.760701zM390.096442 536.378544h48.760701v48.764313h-48.760701zM390.096442 487.617843h48.760701v48.760701h-48.760701zM390.096442 438.857143h48.760701v48.7607h-48.760701zM390.096442 390.096442h48.760701v48.760701h-48.760701zM390.096442 341.332129h48.760701v48.764313h-48.760701zM390.096442 292.571429h48.760701v48.7607h-48.760701z" fill="#FECF48" p-id="3005" data-darkreader-inline-fill="" style="--darkreader-inline-fill:#eec758;"></path><path d="M390.096442 243.810728h48.760701V292.571429h-48.760701zM390.096442 195.046415h48.760701v48.764313h-48.760701zM390.096442 146.285714h48.760701v48.760701h-48.760701z" fill="#FFB62D" p-id="3006" data-darkreader-inline-fill="" style="--darkreader-inline-fill:#e4af4d;"></path><path d="M390.096442 97.525014h48.760701v48.7607h-48.760701zM390.096442 48.760701h48.760701v48.764313h-48.760701zM341.332129 926.474986h48.764313v48.760701H341.332129z" p-id="3007"></path><path d="M341.332129 877.714286h48.764313v48.7607H341.332129zM341.332129 828.949973h48.764313v48.764313H341.332129zM341.332129 780.189272h48.764313v48.760701H341.332129z" fill="#FFB62D" p-id="3008" data-darkreader-inline-fill="" style="--darkreader-inline-fill:#e4af4d;"></path><path d="M341.332129 731.428571h48.764313v48.760701H341.332129z" fill="#FECF48" p-id="3009" data-darkreader-inline-fill="" style="--darkreader-inline-fill:#eec758;"></path><path d="M341.332129 682.664258h48.764313v48.764313H341.332129z" fill="#FFFFFF" p-id="3010" data-darkreader-inline-fill="" style="--darkreader-inline-fill:#f2f0ed;"></path><path d="M341.332129 633.903558h48.764313v48.7607H341.332129zM341.332129 585.142857h48.764313v48.760701H341.332129zM341.332129 536.378544h48.764313v48.764313H341.332129zM341.332129 487.617843h48.764313v48.760701H341.332129zM341.332129 438.857143h48.764313v48.7607H341.332129zM341.332129 390.096442h48.764313v48.760701H341.332129zM341.332129 341.332129h48.764313v48.764313H341.332129z" fill="#FECF48" p-id="3011" data-darkreader-inline-fill="" style="--darkreader-inline-fill:#eec758;"></path><path d="M341.332129 292.571429h48.764313v48.7607H341.332129zM341.332129 243.810728h48.764313V292.571429H341.332129z" fill="#FFB62D" p-id="3012" data-darkreader-inline-fill="" style="--darkreader-inline-fill:#e4af4d;"></path><path d="M341.332129 195.046415h48.764313v48.764313H341.332129zM341.332129 146.285714h48.764313v48.760701H341.332129zM292.571429 926.474986h48.7607v48.760701H292.571429z" p-id="3013"></path><path d="M292.571429 877.714286h48.7607v48.7607H292.571429zM292.571429 828.949973h48.7607v48.764313H292.571429z" fill="#FFB62D" p-id="3014" data-darkreader-inline-fill="" style="--darkreader-inline-fill:#e4af4d;"></path><path d="M292.571429 780.189272h48.7607v48.760701H292.571429z" fill="#FECF48" p-id="3015" data-darkreader-inline-fill="" style="--darkreader-inline-fill:#eec758;"></path><path d="M292.571429 731.428571h48.7607v48.760701H292.571429z" fill="#FFFFFF" p-id="3016" data-darkreader-inline-fill="" style="--darkreader-inline-fill:#f2f0ed;"></path><path d="M292.571429 682.664258h48.7607v48.764313H292.571429zM292.571429 633.903558h48.7607v48.7607H292.571429z" fill="#FECF48" p-id="3017" data-darkreader-inline-fill="" style="--darkreader-inline-fill:#eec758;"></path><path d="M292.571429 585.142857h48.7607v48.760701H292.571429z" fill="#FFB62D" p-id="3018" data-darkreader-inline-fill="" style="--darkreader-inline-fill:#e4af4d;"></path><path d="M292.571429 536.378544h48.7607v48.764313H292.571429zM292.571429 487.617843h48.7607v48.760701H292.571429zM292.571429 438.857143h48.7607v48.7607H292.571429zM292.571429 390.096442h48.7607v48.760701H292.571429zM292.571429 341.332129h48.7607v48.764313H292.571429z" fill="#FECF48" p-id="3019" data-darkreader-inline-fill="" style="--darkreader-inline-fill:#eec758;"></path><path d="M292.571429 292.571429h48.7607v48.7607H292.571429z" fill="#FFB62D" p-id="3020" data-darkreader-inline-fill="" style="--darkreader-inline-fill:#e4af4d;"></path><path d="M292.571429 243.810728h48.7607V292.571429H292.571429zM243.810728 975.235687H292.571429v48.764313H243.810728z" p-id="3021"></path><path d="M243.810728 926.474986H292.571429v48.760701H243.810728zM243.810728 877.714286H292.571429v48.7607H243.810728z" fill="#FFB62D" p-id="3022" data-darkreader-inline-fill="" style="--darkreader-inline-fill:#e4af4d;"></path><path d="M243.810728 828.949973H292.571429v48.764313H243.810728z" fill="#FECF48" p-id="3023" data-darkreader-inline-fill="" style="--darkreader-inline-fill:#eec758;"></path><path d="M243.810728 780.189272H292.571429v48.760701H243.810728zM243.810728 731.428571H292.571429v48.760701H243.810728zM243.810728 682.664258H292.571429v48.764313H243.810728zM243.810728 633.903558H292.571429v48.7607H243.810728zM243.810728 585.142857H292.571429v48.760701H243.810728zM243.810728 536.378544H292.571429v48.764313H243.810728z" fill="#FFB62D" p-id="3024" data-darkreader-inline-fill="" style="--darkreader-inline-fill:#e4af4d;"></path><path d="M243.810728 487.617843H292.571429v48.760701H243.810728zM243.810728 438.857143H292.571429v48.7607H243.810728zM243.810728 390.096442H292.571429v48.760701H243.810728z" fill="#FECF48" p-id="3025" data-darkreader-inline-fill="" style="--darkreader-inline-fill:#eec758;"></path><path d="M243.810728 341.332129H292.571429v48.764313H243.810728zM243.810728 292.571429H292.571429v48.7607H243.810728z" fill="#FFB62D" p-id="3026" data-darkreader-inline-fill="" style="--darkreader-inline-fill:#e4af4d;"></path><path d="M243.810728 243.810728H292.571429V292.571429H243.810728zM195.046415 975.235687h48.764313v48.764313H195.046415zM195.046415 926.474986h48.764313v48.760701H195.046415z" p-id="3027"></path><path d="M195.046415 877.714286h48.764313v48.7607H195.046415zM195.046415 828.949973h48.764313v48.764313H195.046415zM195.046415 780.189272h48.764313v48.760701H195.046415zM195.046415 731.428571h48.764313v48.760701H195.046415zM195.046415 682.664258h48.764313v48.764313H195.046415z" fill="#FFB62D" p-id="3028" data-darkreader-inline-fill="" style="--darkreader-inline-fill:#e4af4d;"></path><path d="M195.046415 633.903558h48.764313v48.7607H195.046415zM195.046415 585.142857h48.764313v48.760701H195.046415z" p-id="3029"></path><path d="M195.046415 536.378544h48.764313v48.764313H195.046415zM195.046415 487.617843h48.764313v48.760701H195.046415z" fill="#FFB62D" p-id="3030" data-darkreader-inline-fill="" style="--darkreader-inline-fill:#e4af4d;"></path><path d="M195.046415 438.857143h48.764313v48.7607H195.046415z" fill="#FECF48" p-id="3031" data-darkreader-inline-fill="" style="--darkreader-inline-fill:#eec758;"></path><path d="M195.046415 390.096442h48.764313v48.760701H195.046415zM195.046415 341.332129h48.764313v48.764313H195.046415z" fill="#FFB62D" p-id="3032" data-darkreader-inline-fill="" style="--darkreader-inline-fill:#e4af4d;"></path><path d="M195.046415 292.571429h48.764313v48.7607H195.046415zM146.285714 877.714286h48.760701v48.7607H146.285714z" p-id="3033"></path><path d="M146.285714 828.949973h48.760701v48.764313H146.285714zM146.285714 780.189272h48.760701v48.760701H146.285714z" fill="#FFB62D" p-id="3034" data-darkreader-inline-fill="" style="--darkreader-inline-fill:#e4af4d;"></path><path d="M146.285714 731.428571h48.760701v48.760701H146.285714zM146.285714 682.664258h48.760701v48.764313H146.285714zM146.285714 585.142857h48.760701v48.760701H146.285714zM146.285714 536.378544h48.760701v48.764313H146.285714z" p-id="3035"></path><path d="M146.285714 487.617843h48.760701v48.760701H146.285714z" fill="#FFB62D" p-id="3036" data-darkreader-inline-fill="" style="--darkreader-inline-fill:#e4af4d;"></path><path d="M146.285714 438.857143h48.760701v48.7607H146.285714z" fill="#FECF48" p-id="3037" data-darkreader-inline-fill="" style="--darkreader-inline-fill:#eec758;"></path><path d="M146.285714 390.096442h48.760701v48.760701H146.285714zM146.285714 341.332129h48.760701v48.764313H146.285714z" fill="#FFB62D" p-id="3038" data-darkreader-inline-fill="" style="--darkreader-inline-fill:#e4af4d;"></path><path d="M146.285714 292.571429h48.760701v48.7607H146.285714zM97.525014 828.949973h48.7607v48.764313H97.525014zM97.525014 780.189272h48.7607v48.760701H97.525014zM97.525014 536.378544h48.7607v48.764313H97.525014z" p-id="3039"></path><path d="M97.525014 487.617843h48.7607v48.760701H97.525014zM97.525014 438.857143h48.7607v48.7607H97.525014zM97.525014 390.096442h48.7607v48.760701H97.525014zM97.525014 341.332129h48.7607v48.764313H97.525014z" fill="#FFB62D" p-id="3040" data-darkreader-inline-fill="" style="--darkreader-inline-fill:#e4af4d;"></path><path d="M97.525014 292.571429h48.7607v48.7607H97.525014zM48.760701 487.617843h48.764313v48.760701H48.760701zM48.760701 438.857143h48.764313v48.7607H48.760701z" p-id="3041"></path><path d="M48.760701 390.096442h48.764313v48.760701H48.760701zM48.760701 341.332129h48.764313v48.764313H48.760701z" fill="#FFB62D" p-id="3042" data-darkreader-inline-fill="" style="--darkreader-inline-fill:#e4af4d;"></path><path d="M48.760701 292.571429h48.764313v48.7607H48.760701zM0 438.857143h48.760701v48.7607H0zM0 390.096442h48.760701v48.760701H0zM0 341.332129h48.760701v48.764313H0z" p-id="3043"></path></svg>