<?xml version="1.0" standalone="no"?><!DOCTYPE svg PUBLIC "-//W3C//DTD SVG 1.1//EN" "http://www.w3.org/Graphics/SVG/1.1/DTD/svg11.dtd"><svg t="1650009552893" class="icon" viewBox="0 0 1024 1024" version="1.1" xmlns="http://www.w3.org/2000/svg" p-id="1806" data-darkreader-inline-fill="" xmlns:xlink="http://www.w3.org/1999/xlink" width="200" height="200"><defs><style type="text/css"></style></defs><path d="M313.128421 100.513684a26.947368 26.947368 0 0 1 4.850526 53.463579L313.128421 154.408421H201.566316a77.608421 77.608421 0 0 0-77.231158 70.063158L123.957895 232.016842v627.119158c0 40.313263 30.72 73.458526 70.063158 77.231158l7.545263 0.323368h627.119158a77.608421 77.608421 0 0 0 77.231158-70.063158l0.323368-7.545263V232.016842a77.608421 77.608421 0 0 0-70.063158-77.177263L828.577684 154.408421h-110.592a26.947368 26.947368 0 0 1-4.850526-53.463579l4.850526-0.431158h110.645895a131.503158 131.503158 0 0 1 131.179789 122.826105l0.269474 8.623158v627.173053a131.503158 131.503158 0 0 1-122.826105 131.179789l-8.623158 0.269474H201.512421a131.503158 131.503158 0 0 1-131.179789-122.826105L70.063158 859.136V231.962947A131.503158 131.503158 0 0 1 192.889263 100.783158L201.512421 100.513684h111.562105z m437.140211 653.258105a26.947368 26.947368 0 0 1 4.850526 53.463579l-4.850526 0.431158H279.929263a26.947368 26.947368 0 0 1-4.850526-53.463579l4.850526-0.431158h470.339369z m0-156.779789a26.947368 26.947368 0 0 1 4.850526 53.463579l-4.850526 0.431158H279.929263a26.947368 26.947368 0 0 1-4.850526-53.463579l4.850526-0.431158h470.339369z m0-156.779789a26.947368 26.947368 0 0 1 4.850526 53.463578l-4.850526 0.431158H279.929263a26.947368 26.947368 0 0 1-4.850526-53.463579l4.850526-0.431157h470.339369z m0-156.833685a26.947368 26.947368 0 0 1 4.850526 53.517474l-4.850526 0.431158H279.929263a26.947368 26.947368 0 0 1-4.850526-53.463579l4.850526-0.431158h470.339369zM593.488842 100.513684a26.947368 26.947368 0 0 1 4.850526 53.463579L593.488842 154.408421H436.709053a26.947368 26.947368 0 0 1-4.850527-53.463579L436.709053 100.513684h156.833684z" fill="#ffffff" p-id="1807" data-darkreader-inline-fill="" style="--darkreader-inline-fill:#f2f0ed;"></path></svg>