<?xml version="1.0" standalone="no"?><!DOCTYPE svg PUBLIC "-//W3C//DTD SVG 1.1//EN" "http://www.w3.org/Graphics/SVG/1.1/DTD/svg11.dtd"><svg t="1650550273974" class="icon" viewBox="0 0 1024 1024" version="1.1" xmlns="http://www.w3.org/2000/svg" p-id="1212" data-darkreader-inline-fill="" xmlns:xlink="http://www.w3.org/1999/xlink" width="200" height="200"><defs><style type="text/css"></style></defs><path d="M625.777778 654.222222a85.333333 85.333333 0 0 1 84.935111 77.141334L711.111111 739.555556v142.222222h174.193778V682.666667a28.444444 28.444444 0 0 1 23.324444-27.989334l5.12-0.455111a28.444444 28.444444 0 0 1 27.989334 23.324445l0.455111 5.12v256H85.333333V682.666667a28.444444 28.444444 0 0 1 56.433778-5.12L142.222222 682.666667v199.111111h170.666667V739.555556a85.333333 85.333333 0 0 1 77.141333-84.935112L398.222222 654.222222h227.555556z m0 56.888889H398.222222a28.444444 28.444444 0 0 0-27.989333 23.324445L369.777778 739.555556v142.222222h284.444444V739.555556a28.444444 28.444444 0 0 0-23.324444-27.989334L625.777778 711.111111zM109.738667 568.888889C80.554667 568.888889 56.888889 543.402667 56.888889 512c0-6.087111 0.910222-12.174222 2.730667-17.976889l70.428444-227.555555c7.224889-23.267556 27.420444-38.912 50.119111-38.912h663.608889c22.755556 0 42.951111 15.644444 50.176 38.912l70.428444 227.555555c9.216 29.809778-5.688889 62.008889-33.393777 71.964445a49.436444 49.436444 0 0 1-16.725334 2.901333H109.738667z m225.28-284.444445H183.523556L113.777778 512h175.729778l45.511111-227.555556zM483.555556 284.444444H393.102222l-45.511111 227.555556H483.555556V284.444444z m147.285333 0H540.444444v227.555556h135.907556l-45.511111-227.555556z m209.635555 0H688.924444l45.511112 227.555556H910.222222l-69.745778-227.555556zM768 85.333333a28.444444 28.444444 0 0 1 5.12 56.433778l-5.12 0.455111h-512a28.444444 28.444444 0 0 1-5.12-56.433778L256 85.333333h512z" fill="#ffffff" p-id="1213" data-darkreader-inline-fill="" style="--darkreader-inline-fill:#f2f0ed;"></path></svg>