<?xml version="1.0" standalone="no"?><!DOCTYPE svg PUBLIC "-//W3C//DTD SVG 1.1//EN" "http://www.w3.org/Graphics/SVG/1.1/DTD/svg11.dtd"><svg t="1650793104710" class="icon" viewBox="0 0 1024 1024" version="1.1" xmlns="http://www.w3.org/2000/svg" p-id="1018" data-darkreader-inline-fill="" xmlns:xlink="http://www.w3.org/1999/xlink" width="200" height="200"><defs><style type="text/css"></style></defs><path d="M808.421053 749.136842a26.947368 26.947368 0 0 1 26.51621 22.096842l0.431158 4.850527V856.926316h80.842105a26.947368 26.947368 0 0 1 4.850527 53.463579L916.210526 910.821053H835.368421v80.842105a26.947368 26.947368 0 0 1-53.463579 4.850526L781.473684 991.663158V910.821053h-80.842105a26.947368 26.947368 0 0 1-4.850526-53.463579L700.631579 856.926316H781.473684v-80.842105a26.947368 26.947368 0 0 1 26.947369-26.947369zM512 75.452632a215.632842 215.632842 0 0 1 210.297263 167.936 26.947368 26.947368 0 0 1-52.601263 11.856842A161.738105 161.738105 0 1 0 452.715789 441.505684c12.018526 1.077895 24.090947 2.856421 36.109474 5.389474a215.578947 215.578947 0 1 1 266.455579 267.048421 25.869474 25.869474 0 0 1-11.641263 3.557053l-4.850526 0.431157c-12.719158 2.586947-25.869474 4.042105-39.343158 4.20379-162.384842 23.013053-249.424842 110.268632-301.648842 269.581474a26.085053 26.085053 0 0 1-32.336842 16.168421 24.522105 24.522105 0 0 1-16.976843-30.935579c46.888421-142.982737 122.88-235.951158 245.975579-280.252632A215.255579 215.255579 0 0 1 480.417684 506.610526l0.10779-6.467368c-7.545263-1.616842-15.090526-2.910316-22.63579-3.880421a26.246737 26.246737 0 0 1-14.282105-0.754526l-2.910316-1.077895a296.528842 296.528842 0 0 0-317.817263 310.864842 26.947368 26.947368 0 1 1-53.786947 2.694737A350.369684 350.369684 0 0 1 360.771368 444.631579 215.578947 215.578947 0 0 1 512 75.452632z m183.996632 269.473684a161.684211 161.684211 0 1 0 0 323.368421 161.684211 161.684211 0 0 0 0-323.368421z" fill="#ffffff" p-id="1019" data-darkreader-inline-fill="" style="--darkreader-inline-fill:#f2f0ed;"></path></svg>