<?xml version="1.0" standalone="no"?><!DOCTYPE svg PUBLIC "-//W3C//DTD SVG 1.1//EN" "http://www.w3.org/Graphics/SVG/1.1/DTD/svg11.dtd"><svg t="1650290609572" class="icon" viewBox="0 0 1024 1024" version="1.1" xmlns="http://www.w3.org/2000/svg" p-id="1208" data-darkreader-inline-fill="" xmlns:xlink="http://www.w3.org/1999/xlink" width="200" height="200"><defs><style type="text/css"></style></defs><path d="M710.144 540.444444a43.064889 43.064889 0 0 1 38.684444 24.120889l4.664889 8.874667h154.339556c34.929778 0 61.269333 37.774222 61.269333 71.566222v32.142222c16.384 14.506667 26.453333 33.792 26.453334 53.077334v204.231111c0.227556 15.985778-5.688889 31.402667-16.497778 42.894222-10.752 11.434667-25.486222 18.033778-40.96 18.204445H541.013333a57.116444 57.116444 0 0 1-40.96-18.204445 61.44 61.44 0 0 1-16.497777-42.894222v-332.856889a61.44 61.44 0 0 1 16.497777-42.951111c10.752-11.434667 25.486222-18.033778 40.96-18.204445z m0.170667 50.062223H547.498667a14.506667 14.506667 0 0 0-12.743111 15.018666v328.248889a14.108444 14.108444 0 0 0 12.743111 15.132445h384.113777a14.563556 14.563556 0 0 0 12.743112-15.075556v-201.386667c0-7.964444-13.596444-22.186667-21.902223-22.243555h-139.377777a21.959111 21.959111 0 0 1-18.773334-11.946667l-53.987555-107.747555zM483.555556 28.444444a227.555556 227.555556 0 0 1 43.121777 451.015112A28.16 28.16 0 0 1 512 483.555556a398.222222 398.222222 0 0 0-398.222222 398.222222 28.444444 28.444444 0 1 1-56.888889 0 455.281778 455.281778 0 0 1 308.906667-431.104A227.555556 227.555556 0 0 1 483.555556 28.444444z m424.846222 590.791112h-131.128889l21.048889 41.870222h126.577778l0.568888-0.056889v-16.042667c0-12.060444-10.069333-25.770667-17.066666-25.770666zM483.555556 85.333333a170.666667 170.666667 0 1 0 0 341.333334 170.666667 170.666667 0 0 0 0-341.333334z" fill="#ffffff" p-id="1209" data-darkreader-inline-fill="" style="--darkreader-inline-fill:#f2f0ed;"></path></svg>